# xmcd CD database file
#
# Track frame offsets:
#	150
#	13862
#	36852
#	54127
#	80132
#	100335
#	140437
#	159030
#	180777
#	201370
#	224230
#	246977
#
# Disc length: 3480 seconds
#
# Revision: 2
# Processed by: cddbd v1.5.2PL0 Copyright (c) Steve Scherf et al.
# Submitted via: CDex 1.51
#
DISCID=a30d960c
DTITLE=Moe. - Tin Cans And Car Tires
DYEAR=1998
DGENRE=Rock
TTITLE0=Stronger Than Fiction
TTITLE1=Spaz Medicine
TTITLE2=Nebraska
TTITLE3=Head
TTITLE4=Hi and Lo
TTITLE5=Plane Crash
TTITLE6=Letter Home
TTITLE7=Big World
TTITLE8=Again and Again
TTITLE9=It
TTITLE10=Happy Hour Hero
TTITLE11=Queen Of The Rodeo
EXTD=YEAR: 1998
EXTT0=
EXTT1=
EXTT2=
EXTT3=
EXTT4=
EXTT5=
EXTT6=
EXTT7=
EXTT8=
EXTT9=
EXTT10=
EXTT11=
PLAYORDER=
